<svg id="primary_logo" data-name="primary logo" xmlns="http://www.w3.org/2000/svg" width="335.16" height="140" viewBox="0 0 335.16 140">
  <title>hpe_pri_grn_rev_rgb2</title>
  <g>
    <path id="element" d="M0,0V32.94H114.69V0ZM107.52,25.78H7.17V7.17H107.52V25.78Z" fill="#00B388"/>
    <path d="M7.17,87.39H0V54.45H7.17v13H20v-13h7.17V87.39H20V73.74H7.17Zm36.26.53c-7.27,0-12.23-4.59-12.23-12.12,0-7.33,4.85-12.39,11.28-12.39,7,0,10.49,4.69,10.49,11.7v2.64H38c.85,3.63,3.69,4.58,6.54,4.58A11.19,11.19,0,0,0,51,80.43h.26v5.43A13.31,13.31,0,0,1,43.43,87.92ZM38,73h8.54c-.15-2.42-1.16-4.11-3.95-4.11C40.48,68.84,38.64,69.73,38,73Zm33.68.63L68,87.39H61.72L54.55,64.2v-.26h6.86l3.9,13.86L69,63.94h5.58L78.33,77.8l4-13.86h6.59v.26L81.7,87.39H75.43Zm28.84,14.34c-5.7,0-8-2.27-8-7.59V54.45h7v25.4c0,1.64.63,2.22,2,2.22a5.29,5.29,0,0,0,1.59-.32h.1V87.5A8.33,8.33,0,0,1,100.52,87.92Zm16.81,0c-7.27,0-12.23-4.59-12.23-12.12,0-7.33,4.85-12.39,11.28-12.39,7,0,10.49,4.69,10.49,11.7v2.64h-15c.84,3.63,3.69,4.58,6.54,4.58a11.21,11.21,0,0,0,6.48-1.9h.26v5.43A13.31,13.31,0,0,1,117.33,87.92ZM111.9,73h8.54c-.16-2.42-1.16-4.11-4-4.11C114.38,68.84,112.53,69.73,111.9,73Zm43.54-9h5.16v5.58h-5.16v9.54c0,2.06.79,3,2.9,3a6.76,6.76,0,0,0,2.11-.32h.15v5.48a12.29,12.29,0,0,1-4.27.69c-5.64,0-7.85-2.58-7.85-8.54V69.52h-8.91v9.54c0,2.06.79,3,2.9,3a6.44,6.44,0,0,0,2.11-.32h.16v5.48a12.38,12.38,0,0,1-4.27.69c-5.64,0-7.86-2.58-7.86-8.54V69.52H129V63.94h3.58V57.51h7v6.43h8.91V57.51h7v6.43Zm41.26,1.68c0,7.17-4.8,11.07-12.07,11.07h-5.12v10.7h-7.16V54.45h12.28C191.9,54.45,196.7,58.35,196.7,65.62Zm-12.65,5c3.64,0,5.38-2.06,5.38-5s-1.74-5.11-5.38-5.11h-4.53V70.63Zm28.14,14.44A7.85,7.85,0,0,1,206,87.81c-4.59,0-8.33-2.79-8.33-7.74,0-4.59,3.74-7.65,9.12-7.65a18.68,18.68,0,0,1,5.21.79v-.42c0-2.53-1.42-3.64-5.16-3.64a13.39,13.39,0,0,0-6.59,1.8H200V65.36a17.32,17.32,0,0,1,8.06-2c7.06,0,10.91,3.37,10.91,9.28v14.7h-6.75V85.07ZM212,80V78a8.08,8.08,0,0,0-3.84-.79c-2.27,0-3.64.84-3.64,2.74s1.37,2.79,3.43,2.79A4.06,4.06,0,0,0,212,80Zm10.49-4.32c0-7.54,5.33-12.28,12.28-12.28a11.11,11.11,0,0,1,6.54,1.79v6H241a8.76,8.76,0,0,0-5.38-1.85c-3.48,0-6.11,2.37-6.11,6.38S232.17,82,235.65,82A8.75,8.75,0,0,0,241,80.17h.26v6a11,11,0,0,1-6.54,1.8C227.8,87.92,222.47,83.23,222.47,75.69Zm30.15,1.06V87.39h-7V54.45h7V73.21l7-9.28h7.91v.27L259.1,74.84l8.44,12.29v.26h-8Zm30.73,8.32a7.88,7.88,0,0,1-6.22,2.74c-4.59,0-8.33-2.79-8.33-7.74,0-4.59,3.74-7.65,9.12-7.65a18.69,18.69,0,0,1,5.22.79v-.42c0-2.53-1.42-3.64-5.16-3.64a13.4,13.4,0,0,0-6.6,1.8h-.26V65.36a17.4,17.4,0,0,1,8.07-2c7.06,0,10.91,3.37,10.91,9.28v14.7h-6.75V85.07ZM283.14,80V78a8.09,8.09,0,0,0-3.85-.79c-2.26,0-3.63.84-3.63,2.74s1.37,2.79,3.42,2.79A4.08,4.08,0,0,0,283.14,80ZM301.8,67.73c1.26-2.58,3.11-4.06,5.69-4.06a5.59,5.59,0,0,1,2.27.42v6.64h-.27a8.06,8.06,0,0,0-3.05-.52A4.38,4.38,0,0,0,302,73.89v13.5h-7V63.93h6.75v3.8ZM328.42,85c-1.48,1.89-3.8,3-7,3-6,0-9.86-5.48-9.86-12.23s3.85-12.28,9.86-12.28c3.06,0,5.27,1,6.75,2.69V54.45h7V87.39h-6.74V85Zm-.22-5.54V71.89a5.14,5.14,0,0,0-4.42-2.42c-3.06,0-5.11,2.21-5.11,6.22s2.05,6.17,5.11,6.17A5.13,5.13,0,0,0,328.2,79.43ZM0,98.15H20.35v4H4.59v10.07H18.87v3.9H4.59v11H20.35v4H0Zm37.16,9.27c5.22,0,8.12,3.43,8.12,9.07v14.6H40.9V116.6c0-3-1.53-5.17-4.85-5.17a6.09,6.09,0,0,0-5.85,4.22v15.44H25.83V107.9H30.2v3.37A8,8,0,0,1,37.16,107.42ZM57,107.9h6v3.74H57v12.49c0,2.64,1.37,3.54,3.85,3.54a5.66,5.66,0,0,0,1.95-.32H63v3.74a7,7,0,0,1-2.74.48c-5.43,0-7.59-2.48-7.59-7V111.64h-4V107.9h4v-6.16H57Zm20.19,23.67c-6.8,0-11.44-4.54-11.44-11.81s4.32-12.33,10.6-12.33,9.69,4.58,9.69,11.38v2H70.16c.47,4.69,3.48,7,7.64,7a9.87,9.87,0,0,0,6.48-2.11h.16v3.85A11.45,11.45,0,0,1,77.22,131.57Zm-6.91-14.34H81.86c-.16-3.43-1.85-6.06-5.43-6.06C73.11,111.17,71,113.64,70.31,117.23Zm25.3-5.75a6.14,6.14,0,0,1,5.75-4,5.47,5.47,0,0,1,2.26.37v4.32h-.15a6.71,6.71,0,0,0-2.74-.47A5.33,5.33,0,0,0,95.61,116v15.13H91.24V107.9h4.37v3.58Zm22.88-4.06c6.9,0,10.59,5.64,10.59,12.07s-3.68,12.07-10.59,12.07a8.38,8.38,0,0,1-6.48-3.05V140h-4.38V107.9H112v2.63A8.26,8.26,0,0,1,118.49,107.42Zm-.74,20.19c4.32,0,6.85-3.42,6.85-8.11s-2.53-8.12-6.85-8.12a6.53,6.53,0,0,0-5.74,3.69V124A6.49,6.49,0,0,0,117.75,127.61Zm20.88-16.13a6.12,6.12,0,0,1,5.74-4,5.57,5.57,0,0,1,2.27.37v4.32h-.16a6.68,6.68,0,0,0-2.74-.47,5.33,5.33,0,0,0-5.12,4.21v15.13h-4.37V107.9h4.37v3.58Zm14.33-13a2.74,2.74,0,1,1,0,5.48,2.74,2.74,0,1,1,0-5.48Zm-2.16,9.38h4.38v23.19H150.8Zm20,9.65c3.32,1,7,2.42,7,6.85,0,4.74-3.9,7.17-8.91,7.17-3.06,0-6.11-.74-7.85-2.11v-4.17h.21a11.31,11.31,0,0,0,7.59,2.59c2.47,0,4.69-.95,4.69-3s-1.85-2.53-5.48-3.74c-3.27-1.05-6.91-2.26-6.91-6.64s3.69-7.11,8.38-7.11a12.49,12.49,0,0,1,7.12,1.89v4.22h-.16a10.54,10.54,0,0,0-6.85-2.43c-2.75,0-4.27,1.22-4.27,2.85C165.35,115.81,167,116.33,170.78,117.55Zm22.24,14c-6.8,0-11.44-4.54-11.44-11.81s4.32-12.33,10.6-12.33,9.69,4.58,9.69,11.38v2H186c.48,4.69,3.48,7,7.65,7a9.87,9.87,0,0,0,6.48-2.11h.16v3.85A11.47,11.47,0,0,1,193,131.57Zm-6.91-14.34h11.55c-.16-3.43-1.85-6.06-5.43-6.06C188.91,111.17,186.75,113.64,186.11,117.23Z"/>
  </g>
</svg>
