<svg width="486" height="179" viewBox="0 0 486 179" fill="none" xmlns="http://www.w3.org/2000/svg">
<path d="M91.7438 161.998C92.3765 161.813 93.0165 162.295 92.968 162.952C92.5115 169.134 89.979 174.419 84.7087 175.959C79.8547 176.8 74.1093 174.055 72.4493 168.511C72.3035 168.024 72.606 167.526 73.0939 167.384C82.1459 164.743 77.3343 166.209 82.8126 164.608C88.2028 163.033 83.2994 164.465 91.7438 161.998Z" fill="white"/>
<path d="M60.3071 152.462C59.5515 151.455 59.9381 150.006 61.0952 149.508L97.2088 133.991C98.6636 133.366 100.216 134.648 99.8764 136.195L98.9755 140.3C98.8311 140.958 98.3566 141.494 97.7212 141.717L63.0867 153.901C62.2858 154.183 61.3947 153.913 60.8853 153.233L60.3071 152.462Z" fill="white"/>
<path d="M66.2023 161.431C65.5428 160.402 65.9855 159.026 67.1217 158.575L94.8362 147.561C96.2929 146.982 97.8009 148.276 97.45 149.804L96.5037 153.925C96.3464 154.609 95.8318 155.156 95.1576 155.355L68.9236 163.082C68.0941 163.326 67.2029 162.993 66.7364 162.265L66.2023 161.431Z" fill="white"/>
<path d="M32.0811 120.338H42.2919L14.0907 47.4038L18.953 45.4588V35.248L1.44873 42.0552L32.0811 120.338Z" fill="white" stroke="white" stroke-width="0.972457"/>
<path d="M29.1638 41.5693V31.3585L106.96 0.726074L113.768 18.2303H103.557L101.612 13.368L29.1638 41.5693Z" fill="white" stroke="white" stroke-width="0.972457"/>
<path d="M135.162 100.889L107.447 28.4409H117.657L147.804 106.724L129.813 113.531V103.32L135.162 100.889Z" fill="white" stroke="white" stroke-width="0.972457"/>
<path d="M119.602 117.421V107.21V106.724L48.1267 134.925L46.5793 131.035H35.9709L42.2919 147.567L119.602 117.421Z" fill="white" stroke="white" stroke-width="0.972457"/>
<path d="M19.4391 18.7165H58.6831L36.3652 27.4686H28.6775H28.1912V27.9548V81.2524L19.4391 58.4969V18.7165Z" fill="#01A982" stroke="#01A982" stroke-width="0.972457" stroke-linecap="square"/>
<path d="M19.4391 130.063V90.7098L28.1912 113.136V120.825V121.311H28.6775H79.9747L57.7589 130.063H19.4391Z" fill="#01A982" stroke="#01A982" stroke-width="0.972457"/>
<path d="M129.327 88.337V130.063H89.8616L112.305 121.311H120.088H120.575V120.824V65.4835L129.327 88.337Z" fill="#01A982" stroke="#01A982" stroke-width="0.972457"/>
<path d="M90.5205 18.7165H129.327V55.9685L120.575 33.213V27.9548V27.4686H120.088H68.2026L90.5205 18.7165Z" fill="#01A982" stroke="#01A982" stroke-width="0.972457"/>
<path d="M180.095 136.244C180.095 147.446 187.564 155.033 197.699 155.033C201.789 155.033 204.99 153.848 207.361 151.892V145.49C204.456 148.217 201.493 149.461 197.759 149.461C190.824 149.461 186.319 144.008 186.319 136.244C186.319 128.42 190.824 122.966 197.759 122.966C201.493 122.966 204.456 124.27 207.361 126.997V120.596C204.99 118.64 201.789 117.454 197.699 117.454C187.564 117.454 180.095 125.041 180.095 136.244Z" fill="white"/>
<path d="M214.35 118.047V154.44H238.119V148.928H220.396V138.496H236.459V133.102H220.396V123.5H238.119V118.047H214.35Z" fill="white"/>
<path d="M274.078 118.047H268.151V143.297L250.606 118.047H244.797V154.44H250.724V127.945L269.336 154.44H274.078V118.047Z" fill="white"/>
<path d="M279.88 123.5H291.971V154.44H298.136V123.5H310.227V118.047H279.88V123.5Z" fill="white"/>
<path d="M326.602 139.681L336.738 154.44H343.732L333.182 139.444C338.931 138.555 342.487 135.058 342.487 128.953C342.487 121.84 337.627 118.047 330.099 118.047H316.052V154.44H322.216V139.681H326.602ZM322.216 123.381H329.981C334.071 123.381 336.382 125.574 336.382 128.953C336.382 132.332 334.071 134.525 329.981 134.525H322.216V123.381Z" fill="white"/>
<path d="M348.93 118.047V154.44H372.698V148.928H354.975V138.496H371.038V133.102H354.975V123.5H372.698V118.047H348.93Z" fill="white"/>
<path d="M185.746 66.1833H179.582V102.577H185.746V66.1833Z" fill="white"/>
<path d="M223.102 66.1833H217.174V91.4335L199.63 66.1833H193.821V102.577H199.748V76.0819L218.36 102.577H223.102V66.1833Z" fill="white"/>
<path d="M260.437 66.1833H254.509V91.4335L236.965 66.1833H231.156V102.577H237.083V76.0819L255.695 102.577H260.437V66.1833Z" fill="white"/>
<path d="M300.142 84.3801C300.142 73.4739 293.148 65.5906 283.309 65.5906C273.47 65.5906 266.535 73.4739 266.535 84.3801C266.535 95.227 273.47 103.17 283.309 103.17C293.148 103.17 300.142 95.227 300.142 84.3801ZM293.919 84.3801C293.919 92.0855 289.71 97.6572 283.309 97.6572C276.908 97.6572 272.758 92.0855 272.758 84.3801C272.758 76.6746 276.908 71.103 283.309 71.103C289.71 71.103 293.919 76.6746 293.919 84.3801Z" fill="white"/>
<path d="M321.5 102.577L335.251 66.1833H328.968L318.655 94.575L308.342 66.1833H301.881L315.632 102.577H321.5Z" fill="white"/>
<path d="M348.342 66.1833L334.353 102.577H340.577L344.311 92.5004H358.24L361.975 102.577H368.257L354.269 66.1833H348.342ZM351.246 73.711L356.225 87.1659H346.267L351.246 73.711Z" fill="white"/>
<path d="M367.708 71.6364H379.8V102.577H385.964V71.6364H398.056V66.1833H367.708V71.6364Z" fill="white"/>
<path d="M410.045 66.1833H403.88V102.577H410.045V66.1833Z" fill="white"/>
<path d="M449.771 84.3801C449.771 73.4739 442.777 65.5906 432.938 65.5906C423.099 65.5906 416.164 73.4739 416.164 84.3801C416.164 95.227 423.099 103.17 432.938 103.17C442.777 103.17 449.771 95.227 449.771 84.3801ZM443.548 84.3801C443.548 92.0855 439.339 97.6572 432.938 97.6572C426.536 97.6572 422.387 92.0855 422.387 84.3801C422.387 76.6746 426.536 71.103 432.938 71.103C439.339 71.103 443.548 76.6746 443.548 84.3801Z" fill="white"/>
<path d="M485.141 66.1833H479.213V91.4335L461.669 66.1833H455.86V102.577H461.787V76.0819L480.399 102.577H485.141V66.1833Z" fill="white"/>
<path d="M189.623 24.7665L178.954 52.0616H182.511L185.623 43.8376H196.87L200.026 52.0616H203.582L192.913 24.7665H189.623ZM191.224 29.1231L195.669 40.7702H186.778L191.224 29.1231Z" fill="white"/>
<path d="M217.839 41.1258C223.351 41.1258 226.952 38.2807 226.952 32.9462C226.952 27.5672 223.351 24.7665 217.839 24.7665H207.748V52.0616H211.26V41.1258H217.839ZM223.485 32.9462C223.485 36.0136 221.484 38.014 217.794 38.014H211.26V27.8339H217.794C221.484 27.8339 223.485 29.8344 223.485 32.9462Z" fill="white"/>
<path d="M238.115 24.7665L227.446 52.0616H231.003L234.114 43.8376H245.361L248.518 52.0616H252.074L241.405 24.7665H238.115ZM239.716 29.1231L244.161 40.7702H235.27L239.716 29.1231Z" fill="white"/>
<path d="M253.771 38.4141C253.771 46.9494 259.283 52.4617 266.574 52.4617C269.73 52.4617 272.131 51.5726 273.909 50.1056V46.4159C271.686 48.4164 269.419 49.3055 266.618 49.3055C261.106 49.3055 257.283 44.9934 257.283 38.4141C257.283 31.8348 261.106 27.5227 266.618 27.5227C269.419 27.5227 271.686 28.3674 273.909 30.4123V26.7225C272.131 25.2555 269.73 24.3665 266.574 24.3665C259.283 24.3665 253.771 29.8788 253.771 38.4141Z" fill="white"/>
</svg>
