<svg width="486" height="179" viewBox="0 0 486 179" fill="none" xmlns="http://www.w3.org/2000/svg">
<path d="M91.7438 161.998C92.3765 161.813 93.0165 162.295 92.968 162.952C92.5115 169.134 89.979 174.419 84.7087 175.959C79.8547 176.8 74.1093 174.055 72.4493 168.511C72.3035 168.024 72.606 167.526 73.0939 167.384C82.1459 164.743 77.3343 166.209 82.8126 164.608C88.2028 163.033 83.2994 164.465 91.7438 161.998Z" fill="black"/>
<path d="M60.3071 152.462C59.5515 151.455 59.9381 150.006 61.0952 149.508L97.2088 133.991C98.6636 133.366 100.216 134.648 99.8764 136.195L98.9755 140.3C98.8311 140.958 98.3566 141.494 97.7212 141.717L63.0867 153.901C62.2858 154.183 61.3947 153.913 60.8853 153.233L60.3071 152.462Z" fill="black"/>
<path d="M66.2023 161.431C65.5428 160.402 65.9855 159.026 67.1217 158.575L94.8362 147.561C96.2929 146.982 97.8009 148.276 97.45 149.804L96.5037 153.925C96.3464 154.609 95.8318 155.156 95.1576 155.355L68.9236 163.082C68.0941 163.326 67.2029 162.993 66.7364 162.265L66.2023 161.431Z" fill="black"/>
<path d="M32.0811 120.338H42.2919L14.0907 47.4038L18.953 45.4588V35.248L1.44873 42.0552L32.0811 120.338Z" fill="black" stroke="black" stroke-width="0.972457"/>
<path d="M29.1638 41.5693V31.3585L106.96 0.726074L113.768 18.2303H103.557L101.612 13.368L29.1638 41.5693Z" fill="black" stroke="black" stroke-width="0.972457"/>
<path d="M135.162 100.889L107.447 28.4409H117.657L147.804 106.724L129.813 113.531V103.32L135.162 100.889Z" fill="black" stroke="black" stroke-width="0.972457"/>
<path d="M119.602 117.421V107.21V106.724L48.1267 134.925L46.5793 131.035H35.9709L42.2919 147.567L119.602 117.421Z" fill="black" stroke="black" stroke-width="0.972457"/>
<path d="M19.4391 18.7162H58.6831L36.3652 27.4683H28.6775H28.1912V27.9546V81.2522L19.4391 58.4967V18.7162Z" fill="#01A982" stroke="#01A982" stroke-width="0.972457" stroke-linecap="square"/>
<path d="M19.4391 130.063V90.7098L28.1912 113.136V120.825V121.311H28.6775H79.9747L57.7589 130.063H19.4391Z" fill="#01A982" stroke="#01A982" stroke-width="0.972457"/>
<path d="M129.327 88.3373V130.063H89.8616L112.305 121.311H120.088H120.575V120.825V65.4837L129.327 88.3373Z" fill="#01A982" stroke="#01A982" stroke-width="0.972457"/>
<path d="M90.5205 18.7162H129.327V55.9683L120.575 33.2128V27.9546V27.4683H120.088H68.2026L90.5205 18.7162Z" fill="#01A982" stroke="#01A982" stroke-width="0.972457"/>
<path d="M180.095 136.243C180.095 147.446 187.564 155.033 197.699 155.033C201.789 155.033 204.99 153.847 207.361 151.891V145.49C204.456 148.216 201.493 149.461 197.759 149.461C190.824 149.461 186.319 144.008 186.319 136.243C186.319 128.419 190.824 122.966 197.759 122.966C201.493 122.966 204.456 124.27 207.361 126.997V120.595C204.99 118.639 201.789 117.454 197.699 117.454C187.564 117.454 180.095 125.041 180.095 136.243Z" fill="black"/>
<path d="M214.35 118.047V154.44H238.119V148.928H220.396V138.496H236.459V133.102H220.396V123.5H238.119V118.047H214.35Z" fill="black"/>
<path d="M274.078 118.047H268.151V143.297L250.606 118.047H244.797V154.44H250.724V127.945L269.336 154.44H274.078V118.047Z" fill="black"/>
<path d="M279.88 123.5H291.971V154.44H298.136V123.5H310.227V118.047H279.88V123.5Z" fill="black"/>
<path d="M326.602 139.681L336.738 154.44H343.732L333.182 139.444C338.931 138.555 342.487 135.058 342.487 128.953C342.487 121.84 337.627 118.047 330.099 118.047H316.052V154.44H322.216V139.681H326.602ZM322.216 123.381H329.981C334.071 123.381 336.382 125.574 336.382 128.953C336.382 132.331 334.071 134.524 329.981 134.524H322.216V123.381Z" fill="black"/>
<path d="M348.93 118.047V154.44H372.698V148.928H354.975V138.496H371.038V133.102H354.975V123.5H372.698V118.047H348.93Z" fill="black"/>
<path d="M185.746 66.1831H179.582V102.577H185.746V66.1831Z" fill="black"/>
<path d="M223.102 66.1831H217.174V91.4333L199.63 66.1831H193.821V102.577H199.748V76.0816L218.36 102.577H223.102V66.1831Z" fill="black"/>
<path d="M260.437 66.1831H254.509V91.4333L236.965 66.1831H231.156V102.577H237.083V76.0816L255.695 102.577H260.437V66.1831Z" fill="black"/>
<path d="M300.142 84.3798C300.142 73.4736 293.148 65.5903 283.309 65.5903C273.47 65.5903 266.535 73.4736 266.535 84.3798C266.535 95.2267 273.47 103.169 283.309 103.169C293.148 103.169 300.142 95.2267 300.142 84.3798ZM293.919 84.3798C293.919 92.0853 289.71 97.6569 283.309 97.6569C276.908 97.6569 272.758 92.0853 272.758 84.3798C272.758 76.6743 276.908 71.1027 283.309 71.1027C289.71 71.1027 293.919 76.6743 293.919 84.3798Z" fill="black"/>
<path d="M321.5 102.577L335.251 66.1831H328.968L318.655 94.5747L308.342 66.1831H301.881L315.632 102.577H321.5Z" fill="black"/>
<path d="M348.342 66.1831L334.353 102.577H340.577L344.311 92.5002H358.24L361.975 102.577H368.257L354.269 66.1831H348.342ZM351.246 73.7107L356.225 87.1656H346.267L351.246 73.7107Z" fill="black"/>
<path d="M367.708 71.6362H379.8V102.577H385.964V71.6362H398.056V66.1831H367.708V71.6362Z" fill="black"/>
<path d="M410.045 66.1831H403.88V102.577H410.045V66.1831Z" fill="black"/>
<path d="M449.771 84.3798C449.771 73.4736 442.777 65.5903 432.938 65.5903C423.099 65.5903 416.164 73.4736 416.164 84.3798C416.164 95.2267 423.099 103.169 432.938 103.169C442.777 103.169 449.771 95.2267 449.771 84.3798ZM443.548 84.3798C443.548 92.0853 439.339 97.6569 432.938 97.6569C426.536 97.6569 422.387 92.0853 422.387 84.3798C422.387 76.6743 426.536 71.1027 432.938 71.1027C439.339 71.1027 443.548 76.6743 443.548 84.3798Z" fill="black"/>
<path d="M485.141 66.1831H479.213V91.4333L461.669 66.1831H455.86V102.577H461.787V76.0816L480.399 102.577H485.141V66.1831Z" fill="black"/>
<path d="M189.623 24.7663L178.954 52.0614H182.511L185.623 43.8373H196.87L200.026 52.0614H203.582L192.913 24.7663H189.623ZM191.224 29.1228L195.669 40.7699H186.778L191.224 29.1228Z" fill="black"/>
<path d="M217.839 41.1256C223.351 41.1256 226.952 38.2805 226.952 32.9459C226.952 27.5669 223.351 24.7663 217.839 24.7663H207.748V52.0614H211.26V41.1256H217.839ZM223.485 32.9459C223.485 36.0133 221.484 38.0138 217.794 38.0138H211.26V27.8337H217.794C221.484 27.8337 223.485 29.8341 223.485 32.9459Z" fill="black"/>
<path d="M238.115 24.7663L227.446 52.0614H231.003L234.114 43.8373H245.361L248.518 52.0614H252.074L241.405 24.7663H238.115ZM239.716 29.1228L244.161 40.7699H235.27L239.716 29.1228Z" fill="black"/>
<path d="M253.771 38.4139C253.771 46.9491 259.283 52.4615 266.574 52.4615C269.73 52.4615 272.131 51.5724 273.909 50.1054V46.4157C271.686 48.4161 269.419 49.3052 266.618 49.3052C261.106 49.3052 257.283 44.9931 257.283 38.4139C257.283 31.8346 261.106 27.5225 266.618 27.5225C269.419 27.5225 271.686 28.3671 273.909 30.412V26.7223C272.131 25.2553 269.73 24.3662 266.574 24.3662C259.283 24.3662 253.771 29.8786 253.771 38.4139Z" fill="black"/>
</svg>
